<mxfile host="app.diagrams.net" agent="Mozilla/5.0 (X11; Linux x86_64) AppleWebKit/537.36 (KHTML, like Gecko) Chrome/137.0.0.0 Safari/537.36" version="27.1.6">
  <diagram name="PÃ¡gina-1" id="Rz52H6xfiQ_O5SjYJlgX">
    <mxGraphModel dx="1130" dy="665" grid="1" gridSize="10" guides="1" tooltips="1" connect="1" arrows="1" fold="1" page="1" pageScale="1" pageWidth="827" pageHeight="1169" math="0" shadow="0">
      <root>
        <mxCell id="0" />
        <mxCell id="1" parent="0" />
        <mxCell id="wZlqkVIhnbZA2nh9M57B-7" value="&lt;font style=&quot;font-size: 16px;&quot;&gt;Rede interna do Google&lt;/font&gt;" style="rounded=0;whiteSpace=wrap;html=1;align=left;verticalAlign=top;" vertex="1" parent="1">
          <mxGeometry x="230" y="70" width="820" height="430" as="geometry" />
        </mxCell>
        <mxCell id="wZlqkVIhnbZA2nh9M57B-16" style="edgeStyle=orthogonalEdgeStyle;rounded=0;orthogonalLoop=1;jettySize=auto;html=1;" edge="1" parent="1" source="wZlqkVIhnbZA2nh9M57B-1" target="wZlqkVIhnbZA2nh9M57B-2">
          <mxGeometry relative="1" as="geometry">
            <Array as="points">
              <mxPoint x="82" y="190" />
            </Array>
          </mxGeometry>
        </mxCell>
        <mxCell id="wZlqkVIhnbZA2nh9M57B-17" style="edgeStyle=orthogonalEdgeStyle;rounded=0;orthogonalLoop=1;jettySize=auto;html=1;" edge="1" parent="1" source="wZlqkVIhnbZA2nh9M57B-1" target="wZlqkVIhnbZA2nh9M57B-4">
          <mxGeometry relative="1" as="geometry">
            <Array as="points">
              <mxPoint x="82" y="380" />
            </Array>
          </mxGeometry>
        </mxCell>
        <mxCell id="wZlqkVIhnbZA2nh9M57B-1" value="&lt;font style=&quot;font-size: 16px;&quot;&gt;Internet&lt;/font&gt;" style="image;aspect=fixed;perimeter=ellipsePerimeter;html=1;align=center;shadow=0;dashed=0;spacingTop=3;image=img/lib/active_directory/internet_cloud.svg;" vertex="1" parent="1">
          <mxGeometry x="10" y="230" width="144.13" height="90.8" as="geometry" />
        </mxCell>
        <mxCell id="wZlqkVIhnbZA2nh9M57B-9" value="case-globo-vpc" style="rounded=0;whiteSpace=wrap;html=1;align=left;verticalAlign=top;fontSize=16;" vertex="1" parent="1">
          <mxGeometry x="530" y="90" width="490" height="370" as="geometry" />
        </mxCell>
        <mxCell id="wZlqkVIhnbZA2nh9M57B-10" value="case-globo-subnet" style="rounded=0;whiteSpace=wrap;html=1;align=left;verticalAlign=top;fontSize=16;" vertex="1" parent="1">
          <mxGeometry x="670" y="100" width="320" height="310" as="geometry" />
        </mxCell>
        <mxCell id="wZlqkVIhnbZA2nh9M57B-24" style="edgeStyle=orthogonalEdgeStyle;rounded=0;orthogonalLoop=1;jettySize=auto;html=1;" edge="1" parent="1" source="wZlqkVIhnbZA2nh9M57B-11" target="wZlqkVIhnbZA2nh9M57B-22">
          <mxGeometry relative="1" as="geometry">
            <mxPoint x="670" y="294" as="targetPoint" />
            <Array as="points">
              <mxPoint x="740" y="294" />
              <mxPoint x="740" y="294" />
            </Array>
          </mxGeometry>
        </mxCell>
        <mxCell id="wZlqkVIhnbZA2nh9M57B-11" value="" style="shape=image;verticalLabelPosition=bottom;labelBackgroundColor=default;verticalAlign=top;aspect=fixed;imageAspect=0;image=https://user-images.githubusercontent.com/59575502/201122047-25d35add-1566-41e3-a8c4-8c8a82e42875.png;" vertex="1" parent="1">
          <mxGeometry x="480" y="240.99999999999997" width="106" height="106" as="geometry" />
        </mxCell>
        <mxCell id="wZlqkVIhnbZA2nh9M57B-14" value="" style="group" vertex="1" connectable="0" parent="1">
          <mxGeometry x="260" y="340" width="100" height="109.19999999999999" as="geometry" />
        </mxCell>
        <mxCell id="wZlqkVIhnbZA2nh9M57B-4" value="" style="editableCssRules=.*;html=1;shape=image;verticalLabelPosition=bottom;labelBackgroundColor=#ffffff;verticalAlign=top;aspect=fixed;imageAspect=0;image=data:image/svg+xml,PHN2ZyB4bWxucz0iaHR0cDovL3d3dy53My5vcmcvMjAwMC9zdmciIHhtbG5zOnY9Imh0dHBzOi8vdmVjdGEuaW8vbmFubyIgd2lkdGg9IjM2NS40NjQ5OTY3NzA0MjQ5MyIgaGVpZ2h0PSIzNzkuMjIyOTk0NDYzNTc3OTUiIHZpZXdCb3g9IjAgMCA5Ni42OTU5OTkxNDU1MDc4MSAxMDAuMzM1OTk4NTM1MTU2MjUiPiYjeGE7PHN0eWxlIHR5cGU9InRleHQvY3NzIj4mI3hhOwkuc3Qwe2ZpbGw6IzQyODVmNDt9JiN4YTsJLnN0MXtmaWxsOiNhZWNiZmE7fSYjeGE7PC9zdHlsZT4mI3hhOwk8cGF0aCBjbGFzcz0ic3QwIiBkPSJNMjkuNzk0IDEwMC4zMzZMNDYuOTIgNTAuMTY4aDQ5Ljc3NnpNMCA5OS42NzFsMTIuOTc2LTQ5LjUwMkgyOS4yMkwxNi44OTcgOTIuMDU0eiIvPiYjeGE7CTxwYXRoIGNsYXNzPSJzdDEiIGQ9Ik0yOS43OTQgMEw0Ni45MiA1MC4xNjhoNDkuNzc2ek0wIC42NjZsMTIuOTc2IDQ5LjUwMkgyOS4yMkwxNi44OTcgOC4yODN6Ii8+JiN4YTs8L3N2Zz4=;" vertex="1" parent="wZlqkVIhnbZA2nh9M57B-14">
          <mxGeometry x="10" width="80" height="80" as="geometry" />
        </mxCell>
        <mxCell id="wZlqkVIhnbZA2nh9M57B-6" value="&lt;font style=&quot;font-size: 16px;&quot;&gt;golang-app&lt;/font&gt;" style="text;html=1;align=center;verticalAlign=middle;resizable=0;points=[];autosize=1;strokeColor=none;fillColor=none;" vertex="1" parent="wZlqkVIhnbZA2nh9M57B-14">
          <mxGeometry y="79.19999999999999" width="100" height="30" as="geometry" />
        </mxCell>
        <mxCell id="wZlqkVIhnbZA2nh9M57B-15" value="&lt;span style=&quot;font-size: 16px;&quot;&gt;VPC Access Conector&lt;/span&gt;" style="text;html=1;align=center;verticalAlign=middle;whiteSpace=wrap;rounded=0;" vertex="1" parent="1">
          <mxGeometry x="448" y="334" width="170" height="30" as="geometry" />
        </mxCell>
        <mxCell id="wZlqkVIhnbZA2nh9M57B-18" style="edgeStyle=orthogonalEdgeStyle;rounded=0;orthogonalLoop=1;jettySize=auto;html=1;" edge="1" parent="1" source="wZlqkVIhnbZA2nh9M57B-4" target="wZlqkVIhnbZA2nh9M57B-11">
          <mxGeometry relative="1" as="geometry">
            <Array as="points">
              <mxPoint x="420" y="380" />
              <mxPoint x="420" y="290" />
            </Array>
          </mxGeometry>
        </mxCell>
        <mxCell id="wZlqkVIhnbZA2nh9M57B-19" style="edgeStyle=orthogonalEdgeStyle;rounded=0;orthogonalLoop=1;jettySize=auto;html=1;" edge="1" parent="1" source="wZlqkVIhnbZA2nh9M57B-2" target="wZlqkVIhnbZA2nh9M57B-11">
          <mxGeometry relative="1" as="geometry">
            <Array as="points">
              <mxPoint x="420" y="190" />
              <mxPoint x="420" y="290" />
            </Array>
          </mxGeometry>
        </mxCell>
        <mxCell id="wZlqkVIhnbZA2nh9M57B-32" style="edgeStyle=orthogonalEdgeStyle;rounded=0;orthogonalLoop=1;jettySize=auto;html=1;" edge="1" parent="1" source="wZlqkVIhnbZA2nh9M57B-22" target="wZlqkVIhnbZA2nh9M57B-5">
          <mxGeometry relative="1" as="geometry">
            <Array as="points">
              <mxPoint x="830" y="135" />
            </Array>
          </mxGeometry>
        </mxCell>
        <mxCell id="wZlqkVIhnbZA2nh9M57B-34" style="edgeStyle=orthogonalEdgeStyle;rounded=0;orthogonalLoop=1;jettySize=auto;html=1;" edge="1" parent="1" source="wZlqkVIhnbZA2nh9M57B-22" target="wZlqkVIhnbZA2nh9M57B-6">
          <mxGeometry relative="1" as="geometry">
            <Array as="points">
              <mxPoint x="830" y="434" />
            </Array>
          </mxGeometry>
        </mxCell>
        <mxCell id="wZlqkVIhnbZA2nh9M57B-22" value="" style="shape=image;verticalLabelPosition=bottom;labelBackgroundColor=default;verticalAlign=top;aspect=fixed;imageAspect=0;image=https://symbols.getvecta.com/stencil_4/35_google-cloud-memorystore.255833743e.png;" vertex="1" parent="1">
          <mxGeometry x="785" y="244" width="90" height="90" as="geometry" />
        </mxCell>
        <mxCell id="wZlqkVIhnbZA2nh9M57B-23" value="&lt;span style=&quot;font-size: 16px;&quot;&gt;Memorystore&lt;/span&gt;" style="text;html=1;align=center;verticalAlign=middle;whiteSpace=wrap;rounded=0;" vertex="1" parent="1">
          <mxGeometry x="745" y="334" width="170" height="30" as="geometry" />
        </mxCell>
        <mxCell id="wZlqkVIhnbZA2nh9M57B-26" value="&lt;font style=&quot;font-size: 16px;&quot;&gt;1&lt;/font&gt;" style="ellipse;whiteSpace=wrap;html=1;" vertex="1" parent="1">
          <mxGeometry x="154.13" y="140" width="40" height="40" as="geometry" />
        </mxCell>
        <mxCell id="wZlqkVIhnbZA2nh9M57B-28" value="&lt;font style=&quot;font-size: 16px;&quot;&gt;1&lt;/font&gt;" style="ellipse;whiteSpace=wrap;html=1;" vertex="1" parent="1">
          <mxGeometry x="154.13" y="390" width="40" height="40" as="geometry" />
        </mxCell>
        <mxCell id="wZlqkVIhnbZA2nh9M57B-29" value="&lt;span style=&quot;font-size: 16px;&quot;&gt;2&lt;/span&gt;" style="ellipse;whiteSpace=wrap;html=1;" vertex="1" parent="1">
          <mxGeometry x="430" y="241" width="40" height="40" as="geometry" />
        </mxCell>
        <mxCell id="wZlqkVIhnbZA2nh9M57B-30" value="&lt;span style=&quot;font-size: 16px;&quot;&gt;3&lt;/span&gt;" style="ellipse;whiteSpace=wrap;html=1;" vertex="1" parent="1">
          <mxGeometry x="600" y="241" width="40" height="40" as="geometry" />
        </mxCell>
        <mxCell id="wZlqkVIhnbZA2nh9M57B-2" value="" style="editableCssRules=.*;html=1;shape=image;verticalLabelPosition=bottom;labelBackgroundColor=#ffffff;verticalAlign=top;aspect=fixed;imageAspect=0;image=data:image/svg+xml,PHN2ZyB4bWxucz0iaHR0cDovL3d3dy53My5vcmcvMjAwMC9zdmciIHhtbG5zOnY9Imh0dHBzOi8vdmVjdGEuaW8vbmFubyIgd2lkdGg9IjM2NS40NjQ5OTY3NzA0MjQ5MyIgaGVpZ2h0PSIzNzkuMjIyOTk0NDYzNTc3OTUiIHZpZXdCb3g9IjAgMCA5Ni42OTU5OTkxNDU1MDc4MSAxMDAuMzM1OTk4NTM1MTU2MjUiPiYjeGE7PHN0eWxlIHR5cGU9InRleHQvY3NzIj4mI3hhOwkuc3Qwe2ZpbGw6IzQyODVmNDt9JiN4YTsJLnN0MXtmaWxsOiNhZWNiZmE7fSYjeGE7PC9zdHlsZT4mI3hhOwk8cGF0aCBjbGFzcz0ic3QwIiBkPSJNMjkuNzk0IDEwMC4zMzZMNDYuOTIgNTAuMTY4aDQ5Ljc3NnpNMCA5OS42NzFsMTIuOTc2LTQ5LjUwMkgyOS4yMkwxNi44OTcgOTIuMDU0eiIvPiYjeGE7CTxwYXRoIGNsYXNzPSJzdDEiIGQ9Ik0yOS43OTQgMEw0Ni45MiA1MC4xNjhoNDkuNzc2ek0wIC42NjZsMTIuOTc2IDQ5LjUwMkgyOS4yMkwxNi44OTcgOC4yODN6Ii8+JiN4YTs8L3N2Zz4=;" vertex="1" parent="1">
          <mxGeometry x="270" y="150" width="80" height="80" as="geometry" />
        </mxCell>
        <mxCell id="wZlqkVIhnbZA2nh9M57B-5" value="&lt;font style=&quot;font-size: 16px;&quot;&gt;python-app&lt;/font&gt;" style="text;html=1;align=center;verticalAlign=middle;resizable=0;points=[];autosize=1;strokeColor=none;fillColor=none;" vertex="1" parent="1">
          <mxGeometry x="260" y="120" width="100" height="30" as="geometry" />
        </mxCell>
        <mxCell id="wZlqkVIhnbZA2nh9M57B-35" value="&lt;font style=&quot;font-size: 16px;&quot;&gt;4&lt;/font&gt;" style="ellipse;whiteSpace=wrap;html=1;" vertex="1" parent="1">
          <mxGeometry x="440" y="440" width="40" height="40" as="geometry" />
        </mxCell>
        <mxCell id="wZlqkVIhnbZA2nh9M57B-36" value="&lt;font style=&quot;font-size: 16px;&quot;&gt;4&lt;/font&gt;" style="ellipse;whiteSpace=wrap;html=1;" vertex="1" parent="1">
          <mxGeometry x="430" y="90" width="40" height="40" as="geometry" />
        </mxCell>
      </root>
    </mxGraphModel>
  </diagram>
</mxfile>
